{
    "accessors" : [
        {
            "bufferView" : 0, 
            "componentType" : 5123, 
            "count" : 2880, 
            "max" : [
                1983
            ], 
            "min" : [
                0
            ], 
            "type" : "SCALAR"
        }, 
        {
            "bufferView" : 1, 
            "componentType" : 5126, 
            "count" : 1984, 
            "max" : [
                1.000000238418579, 
                1.0, 
                1.0000003576278687
            ], 
            "min" : [
                -0.9999998211860657, 
                -1.0, 
                -0.9999991655349731
            ], 
            "type" : "VEC3"
        }, 
        {
            "bufferView" : 2, 
            "componentType" : 5126, 
            "count" : 1984, 
            "max" : [
                0.9904382228851318, 
                0.99513840675354, 
                0.9904382824897766
            ], 
            "min" : [
                -0.9904382228851318, 
                -0.99513840675354, 
                -0.9904387593269348
            ], 
            "type" : "VEC3"
        }, 
        {
            "bufferView" : 3, 
            "componentType" : 5126, 
            "count" : 1984, 
            "max" : [
                0.967824399471283, 
                0.34672868251800537, 
                0.9732165336608887, 
                1.0
            ], 
            "min" : [
                -0.9678244590759277, 
                -0.34672781825065613, 
                -0.9732168912887573, 
                1.0
            ], 
            "type" : "VEC4"
        }, 
        {
            "bufferView" : 4, 
            "componentType" : 5126, 
            "count" : 1984, 
            "max" : [
                1.1543023586273193, 
                0.9855166673660278
            ], 
            "min" : [
                0.11386993527412415, 
                0.01448369026184082
            ], 
            "type" : "VEC2"
        }, 
        {
            "bufferView" : 5, 
            "componentType" : 5123, 
            "count" : 2880, 
            "max" : [
                1983
            ], 
            "min" : [
                0
            ], 
            "type" : "SCALAR"
        }, 
        {
            "bufferView" : 6, 
            "componentType" : 5126, 
            "count" : 1984, 
            "max" : [
                0.8640002608299255, 
                0.8640000224113464, 
                0.8640003800392151
            ], 
            "min" : [
                -0.8639998435974121, 
                -0.8640000224113464, 
                -0.8639991879463196
            ], 
            "type" : "VEC3"
        }, 
        {
            "bufferView" : 7, 
            "componentType" : 5126, 
            "count" : 1984, 
            "max" : [
                0.9904301166534424, 
                0.9951879978179932, 
                0.9904305934906006
            ], 
            "min" : [
                -0.9904301166534424, 
                -0.9951879382133484, 
                -0.9904300570487976
            ], 
            "type" : "VEC3"
        }, 
        {
            "bufferView" : 8, 
            "componentType" : 5126, 
            "count" : 1984, 
            "max" : [
                0.9678176045417786, 
                0.3465263545513153, 
                0.9734472632408142, 
                1.0
            ], 
            "min" : [
                -0.9678171873092651, 
                -0.3465258479118347, 
                -0.9734476804733276, 
                1.0
            ], 
            "type" : "VEC4"
        }, 
        {
            "bufferView" : 9, 
            "componentType" : 5126, 
            "count" : 1984, 
            "max" : [
                1.1543023586273193, 
                0.9855166673660278
            ], 
            "min" : [
                0.11386993527412415, 
                0.01448369026184082
            ], 
            "type" : "VEC2"
        }
    ], 
    "asset" : {
        "generator" : "Khronos Blender glTF 2.0 exporter", 
        "version" : "2.0"
    }, 
    "bufferViews" : [
        {
            "buffer" : 0, 
            "byteLength" : 5760, 
            "byteOffset" : 0, 
            "target" : 34963
        }, 
        {
            "buffer" : 0, 
            "byteLength" : 23808, 
            "byteOffset" : 5760, 
            "target" : 34962
        }, 
        {
            "buffer" : 0, 
            "byteLength" : 23808, 
            "byteOffset" : 29568, 
            "target" : 34962
        }, 
        {
            "buffer" : 0, 
            "byteLength" : 31744, 
            "byteOffset" : 53376, 
            "target" : 34962
        }, 
        {
            "buffer" : 0, 
            "byteLength" : 15872, 
            "byteOffset" : 85120, 
            "target" : 34962
        }, 
        {
            "buffer" : 0, 
            "byteLength" : 5760, 
            "byteOffset" : 100992, 
            "target" : 34963
        }, 
        {
            "buffer" : 0, 
            "byteLength" : 23808, 
            "byteOffset" : 106752, 
            "target" : 34962
        }, 
        {
            "buffer" : 0, 
            "byteLength" : 23808, 
            "byteOffset" : 130560, 
            "target" : 34962
        }, 
        {
            "buffer" : 0, 
            "byteLength" : 31744, 
            "byteOffset" : 154368, 
            "target" : 34962
        }, 
        {
            "buffer" : 0, 
            "byteLength" : 15872, 
            "byteOffset" : 186112, 
            "target" : 34962
        }
    ], 
    "buffers" : [
        {
            "byteLength" : 201984, 
            "uri" : "hemi.bin"
        }
    ], 
    "images" : [
        {
            "uri" : "a.jpg"
        }
    ], 
    "materials" : [
        {
            "doubleSided" : true, 
            "name" : "Material.001", 
            "pbrMetallicRoughness" : {
                "baseColorTexture" : {
                    "index" : 0
                }, 
                "metallicFactor" : 0.0
            }
        }, 
        {
            "doubleSided" : true, 
            "name" : "Material.002", 
            "pbrMetallicRoughness" : {
                "metallicFactor" : 0.0
            }
        }
    ], 
    "meshes" : [
        {
            "name" : "Sphere.001", 
            "primitives" : [
                {
                    "attributes" : {
                        "NORMAL" : 2, 
                        "POSITION" : 1, 
                        "TANGENT" : 3, 
                        "TEXCOORD_0" : 4
                    }, 
                    "indices" : 0, 
                    "material" : 1
                }, 
                {
                    "attributes" : {
                        "NORMAL" : 7, 
                        "POSITION" : 6, 
                        "TANGENT" : 8, 
                        "TEXCOORD_0" : 9
                    }, 
                    "indices" : 5, 
                    "material" : 0
                }
            ]
        }
    ], 
    "nodes" : [
        {
            "mesh" : 0, 
            "name" : "Sphere", 
            "scale" : [
                8.493621826171875, 
                8.493621826171875, 
                8.493621826171875
            ]
        }
    ], 
    "samplers" : [
        {}
    ], 
    "scene" : 0, 
    "scenes" : [
        {
            "name" : "Scene", 
            "nodes" : [
                0
            ]
        }
    ], 
    "textures" : [
        {
            "sampler" : 0, 
            "source" : 0
        }
    ]
}
